<svg width="21" height="21" viewBox="0 0 21 21" fill="none" xmlns="http://www.w3.org/2000/svg">
<path d="M4.10869 17.17L4.58309 17.3279C4.64837 17.1318 4.58629 16.9158 4.42687 16.7843L4.10869 17.17ZM3 20.5L2.5256 20.3421C2.46195 20.5332 2.51928 20.744 2.67103 20.8765C2.82278 21.0091 3.03928 21.0376 3.22019 20.9489L3 20.5ZM6.66521 18.7022L6.85345 18.239C6.72148 18.1853 6.57291 18.1905 6.44502 18.2533L6.66521 18.7022ZM9 9L9.27735 8.58397L8.9775 8.38407L8.69303 8.60532L9 9ZM12 11L11.7226 11.416L12.0412 11.6284L12.3293 11.3763L12 11ZM10.5 0C4.83653 0 0 4.5219 0 10H1C1 5.12419 5.33745 1 10.5 1V0ZM0 10C0 13.0179 1.61722 15.7628 3.79051 17.5557L4.42687 16.7843C2.43303 15.1395 1 12.6592 1 10H0ZM3.63429 17.012L2.5256 20.3421L3.4744 20.6579L4.58309 17.3279L3.63429 17.012ZM3.22019 20.9489L6.88541 19.1511L6.44502 18.2533L2.77981 20.0511L3.22019 20.9489ZM6.47698 19.1654C7.70115 19.6628 9.06084 20 10.5 20V19C9.21732 19 7.98639 18.6993 6.85345 18.239L6.47698 19.1654ZM10.5 20C16.1635 20 21 15.4781 21 10H20C20 14.8758 15.6626 19 10.5 19V20ZM21 10C21 4.5219 16.1635 0 10.5 0V1C15.6625 1 20 5.12419 20 10H21ZM4.80697 12.8947L9.30697 9.39468L8.69303 8.60532L4.19303 12.1053L4.80697 12.8947ZM8.72265 9.41603L11.7226 11.416L12.2774 10.584L9.27735 8.58397L8.72265 9.41603ZM12.3293 11.3763L16.3293 7.87629L15.6707 7.12371L11.6707 10.6237L12.3293 11.3763Z" fill="#12F3D8"/>
</svg>
